solid OpenSCAD_Model
  facet normal -0 0 1
    outer loop
      vertex 0 280 1
      vertex 10 0 1
      vertex 10 280 1
    endloop
  endfacet
  facet normal 0 0 1
    outer loop
      vertex 10 0 1
      vertex 0 280 1
      vertex 0 0 1
    endloop
  endfacet
  facet normal 0 0 -1
    outer loop
      vertex 0 0 0
      vertex 10 280 0
      vertex 10 0 0
    endloop
  endfacet
  facet normal -0 0 -1
    outer loop
      vertex 10 280 0
      vertex 0 0 0
      vertex 0 280 0
    endloop
  endfacet
  facet normal 0 -1 0
    outer loop
      vertex 0 0 0
      vertex 10 0 1
      vertex 0 0 1
    endloop
  endfacet
  facet normal 0 -1 -0
    outer loop
      vertex 10 0 1
      vertex 0 0 0
      vertex 10 0 0
    endloop
  endfacet
  facet normal 1 -0 0
    outer loop
      vertex 10 0 1
      vertex 10 280 0
      vertex 10 280 1
    endloop
  endfacet
  facet normal 1 0 0
    outer loop
      vertex 10 280 0
      vertex 10 0 1
      vertex 10 0 0
    endloop
  endfacet
  facet normal 0 1 -0
    outer loop
      vertex 10 280 0
      vertex 0 280 1
      vertex 10 280 1
    endloop
  endfacet
  facet normal 0 1 0
    outer loop
      vertex 0 280 1
      vertex 10 280 0
      vertex 0 280 0
    endloop
  endfacet
  facet normal -1 0 0
    outer loop
      vertex 0 0 0
      vertex 0 280 1
      vertex 0 280 0
    endloop
  endfacet
  facet normal -1 -0 0
    outer loop
      vertex 0 280 1
      vertex 0 0 0
      vertex 0 0 1
    endloop
  endfacet
endsolid OpenSCAD_Model
